<?xml version="1.0" encoding="UTF-8"?>
<svg width="32px" height="32px" viewBox="0 0 32 32" version="1.1" xmlns="http://www.w3.org/2000/svg" xmlns:xlink="http://www.w3.org/1999/xlink">
    <!-- Generator: Sketch 49.2 (51160) - http://www.bohemiancoding.com/sketch -->
    <title>Shape</title>
    <desc>Created with Sketch.</desc>
    <defs></defs>
    <g id="NT-Dashboard" stroke="none" stroke-width="1" fill="none" fill-rule="evenodd">
        <g id="mockup-v1-copy" transform="translate(-1319.000000, -12.000000)" fill="#FFFFFF" fill-rule="nonzero">
            <g id="Group-3" transform="translate(1319.000000, 12.000000)">
                <path d="M16.000306,0 C7.17788275,0 0,7.17747477 0,15.999694 C0,24.8225252 7.17788275,32 16.000306,32 C24.8227292,32 32.000204,24.8221173 32.000204,15.999694 C32.000204,7.17747477 24.8227292,0 16.000306,0 Z M15.9376821,6.77582503 C18.7286276,6.77582503 20.9906357,9.03844511 20.9906357,11.8287787 C20.9906357,14.6197242 18.7280157,16.8817324 15.9376821,16.8817324 C13.1465325,16.8817324 10.8847284,14.6191123 10.8847284,11.8287787 C10.8845244,9.03844511 13.1465325,6.77582503 15.9376821,6.77582503 Z M24.9500169,27.227732 C22.4936095,29.1915116 19.3828128,30.3683107 16.000306,30.3683107 C12.6218788,30.3683107 9.51414201,29.1953874 7.05875453,27.2362994 C7.28640365,23.1869602 9.95271334,19.0966196 13.2146641,19.0966196 L18.7900276,19.0966196 C22.0587099,19.0966196 24.7317512,23.0384579 24.9498129,27.0941207 C24.9500169,27.0945287 24.9500169,27.0949367 24.9500169,27.0953446 C24.9500169,27.0957526 24.9500169,27.1689838 24.9500169,27.227732 Z" id="Shape"></path>
            </g>
        </g>
    </g>
</svg>